<svg xmlns="http://www.w3.org/2000/svg" width="1929.933" height="659.95" viewBox="0 0 1929.933 659.95"><defs><style>.cls-1{opacity:0.5;}.cls-2{fill:#aac6d6;}</style></defs><g id="レイヤー_2" data-name="レイヤー 2"><g id="レイヤー_1-2" data-name="レイヤー 1"><g class="cls-1"><path class="cls-2" d="M1923.757,653.779c-2.82,2.834-2.781.472-6.779.472s-4-4.021-8-4.021-4,3.764-7.995,3.764-4,1.616-8,1.616-4,2.462-8,2.462-4-3.149-8-3.149-4-2.376-7.995-2.376-4-2.3-8-2.3-4,3.962-8,3.962-4,5.681-8,5.681-4-1.048-8-1.048-4,1.026-8,1.026-4-.059-8-.059-4-.519-8-.519-4-7.94-8-7.94-4,2.022-8,2.022-4-2.961-8-2.961-4-.051-8-.051-4,5.09-8,5.09-4-2.238-8-2.238-4,3.527-8,3.527-4-2.041-8-2.041-4,1.628-8,1.628-4,.612-8,.612-4-3.482-8-3.482-4,1.1-8,1.1-4,4.424-8,4.424-4-3.176-8-3.176-4,.649-8,.649-4,3-8,3-4-5.015-8-5.015-4,3.8-8,3.8-4-8-8-8-4,3.206-8,3.206-4,2.766-8,2.766-4-5.232-8-5.232-4,1.016-8,1.016-4,6.364-8,6.364-4-2.28-8-2.28-4-.356-8-.356-4-1.887-8-1.887-4-.564-8-.564-4-.032-8-.032-4,.8-8,.8-4,5.835-8,5.835-4-4.285-8-4.285-4,.315-8,.315-4,2.526-8,2.526-4,1.2-8,1.2-4-5.6-8-5.6-4,5.387-8,5.387-4-7.121-8-7.121-4,2.031-8,2.031-4,4.449-8,4.449-4,1.12-8,1.12-4-3.257-8-3.257-4,1.062-8,1.062-4,1.492-8,1.492-4-1.641-8-1.641-4-1.212-8-1.212-4,1.469-8,1.469-4-3.461-8-3.461-4,4.321-8,4.321-4-4.9-8-4.9-4-2.319-8-2.319-4,5.231-8,5.231-4-6.338-8-6.338-4,2.257-8,2.257-4,5.163-8,5.163-4-3.611-8-3.611-4,2.906-8,2.906-4,2.522-8,2.522-4-7.08-8-7.08-4-1.389-8-1.389-4,1.986-8,1.986-4,4.034-8,4.034-4,2.506-8,2.506-4-6.331-8-6.331-4,6.636-8,6.636-4-5.391-8-5.391-4-2.75-8-2.75-4,5.443-8,5.443-4-4.6-8-4.6-4-2.009-8-2.009-4,5.481-8,5.481-4,3.162-8,3.162-4-4.986-8-4.986-4,1.268-8,1.268-4,1.473-8,1.473-4-2.31-8-2.31-4-2.158-8-2.158-4,2.212-8,2.212-4-2.116-8-2.116-4-.394-8-.394-4,5.253-8,5.253-4-4.712-8-4.712-4,3.432-8,3.432-4-2.173-8-2.173-4,.542-8,.542-4,5.088-8,5.088-4-.458-8-.458-4-2.46-8-2.46-4-4.758-8-4.758-4,5.938-8,5.938-4-.26-8-.26-4-3.832-8-3.832-4,2.535-8,2.535-4-3.585-8-3.585-4,5.529-8,5.529-4-3.856-8-3.856-4,1.522-8,1.522-4-2.441-8-2.441-4,2.491-8,2.491-4,3.223-8,3.223-4-3.892-8-3.892-4,3.481-8,3.481-4,.387-8,.387-4-.909-8-.909-4-7.755-8-7.755-4,3.161-8,3.161-4,.98-8,.98-4-2.968-8-2.968-4,7.277-8,7.277-4-7.839-8-7.839-4,7.347-8,7.347-4-.622-8-.622-4-4.846-8-4.846-4,3.013-8,3.013-4-1.575-8-1.575-4-4.485-8-4.485-4,1.248-8,1.248-4,3.02-8,3.02-4,2.541-8,2.541-4-.818-8-.818-4,.539-8,.539-4-1.76-8-1.76-4,3.681-8,3.681-4-6.185-8-6.185-4,2.894-8,2.894-4,2.389-8,2.389-4-5.769-8-5.769-4,4.7-8,4.7-4-.782-8-.782-4-.587-8-.587-4-2.035-8-2.035-4,6.637-8,6.637-4-7.784-8-7.784-4-1.522-8-1.522-4,7.016-8,7.016-4-4.026-8-4.026-4,5.5-8,5.5-4,.147-8,.147-4-3.431-8-3.431-4-4.4-8-4.4-4,4.819-8,4.819-4,2.457-8,2.457-4,1.058-8,1.058-4-8.218-8-8.218-4,5.147-8,5.147-4-4.308-8-4.308-4,5.579-8,5.579-4,1.567-8,1.567-4-2.626-8-2.626-4-5.446-8-5.446-4,6.3-8,6.3-4-.57-8-.57-4-1.643-8-1.643-4-3.472-8-3.472-4,3.6-8,3.6-4,2.01-8,2.01-4-1.907-8-1.907-4-4.851-8-4.851-4,1.688-8,1.688-4-.377-8-.377-4,7.726-8,7.726-4-3.043-8-3.043-4-1.532-8-1.532-4,3.332-8,3.332-4-7.807-8-7.807-4,.865-8,.865-4-.621-8-.621-4,6.3-8,6.3-4,1.21-8,1.21-4-1.3-8-1.3-4-1.03-8-1.03-4-1.776-8-1.776-4,2.37-8,2.37-4-4.333-8-4.333-4,3.967-8,3.967-4,1.5-8,1.5-4,.106-8,.106-4-.514-8-.514-4,1.566-8,1.566-4-2-8-2-4-5.742-8-5.742-4,6.951-8,6.951-4-3.291-8-3.291-4-4.851-8-4.851-4,2.009-8,2.009-4,6.652-8,6.652-4-7.895-8-7.895-4-.038-8-.038-4,6.911-8,6.911-4-3.362-8-3.362-4,4.727-8,4.727-4-.02-8-.02-4-1.208-8-1.208-4-4.27-8-4.27-4,2.543-8,2.543-4-.3-8-.3-4-1.741-8-1.741-4-2.729-8-2.729-4,5.241-8,5.241-4,1.318-8,1.318-4-.434-8-.434-4-5.955-8-5.955-4,2.667-8,2.667-4-1.508-8-1.508-4,5.587-8,5.587-4-6.892-8-6.892-4,4.779-8,4.779-4,1.949-8,1.949-4-1.347-8-1.347-4-.692-8.005-.692-4-3.2-8-3.2-4,5.6-8,5.6-4,1-8.007,1-4-3.788-8.006-3.788-4,3.4-8.006,3.4-4-8.043-8.006-8.043-4,8.552-8.008,8.552-4-6.788-8.007-6.788-4,5.552-8.006,5.552-4-4.369-8-4.369-4,1.877-8.006,1.877-4-2.451-8.008-2.451-4,3.923-8.01,3.923-4-6.429-8.008-6.429-4.007,7.914-8.014,7.914-7.939,1.709-10.771-1.126,6.372-6.765,6.372-10.775-.9-4.012-.9-8.023-6.379-4.012-6.379-8.024,6.922-4.011,6.922-8.023-6.114-4.01-6.114-8.02-1.01-4.01-1.01-8.019,5.5-4.01,5.5-8.02-.156-4.009-.156-8.019S.56,586.812.56,582.8s1.261-4.011,1.261-8.022,6.128-4.012,6.128-8.025S3.1,562.744,3.1,558.732s4.059-4.011,4.059-8.021S1.84,546.7,1.84,542.69s6.839-4.01,6.839-8.02,1.179-4.01,1.179-8.021-5.465-4.011-5.465-8.022S.524,514.615.524,510.6.1,506.591.1,502.579,3,498.568,3,494.557s.227-4.011.227-8.021,5.784-4.011,5.784-8.021-8.8-4.012-8.8-8.023.444-4.012.444-8.025,5.95-4.012,5.95-8.024S.88,450.432.88,446.421s.729-4.011.729-8.022,2.674-4.011,2.674-8.022-3.6-4.013-3.6-8.025,3.051-4.012,3.051-8.025,5.66-4.011,5.66-8.023-2.856-4.011-2.856-8.022-4.345-4.012-4.345-8.024-.814-4.013-.814-8.026,3.731-4.012,3.731-8.024-2.417-4.011-2.417-8.023,2.736-4.012,2.736-8.024-4.116-4.013-4.116-8.026,6.3-4.012,6.3-8.024.241-4.012.241-8.024-.626-4.012-.626-8.025-.047-4.012-.047-8.025-.382-4.012-.382-8.024.289-4.013.289-8.025-3.657-4.013-3.657-8.026S.9,289.95.9,285.938s.245-4.013.245-8.026S.711,273.9.711,269.887s4.533-4.013,4.533-8.025-1.089-4.014-1.089-8.027.857-4.012.857-8.025S1.9,241.8,1.9,237.783s7.042-4.013,7.042-8.025S3.9,225.744,3.9,221.731s2.69-4.013,2.69-8.026,2.215-4.012,2.215-8.025-1.455-4.01-1.455-8.021-5.706-4.011-5.706-8.022.879-4.013.879-8.026,5.837-4.012,5.837-8.023-1.841-4.013-1.841-8.026-5.414-4.012-5.414-8.024S.038,153.525.038,149.513,4,145.5,4,141.488s2.09-4.014,2.09-8.028S4,129.448,4,125.435s-1.4-4.014-1.4-8.028,1.833-4.014,1.833-8.028,2.3-4.014,2.3-8.028S8.6,97.337,8.6,93.323,0,89.309,0,85.3s5.672-4.015,5.672-8.03-2.6-4.015-2.6-8.029S.819,65.222.819,61.208,8.8,57.2,8.8,53.181s-5.259-4.014-5.259-8.028,2.123-4.015,2.123-8.03S2.4,33.107,2.4,29.091,4.1,25.076,4.1,21.061s4.688-4.018,4.688-8.036S-1.17,4.544,1.663,1.7,8.972,6.039,12.969,6.039s4,2.514,8,2.514,4-6.506,8-6.506,4,6.155,7.995,6.155,4-6.3,8-6.3,4,7.605,7.995,7.605,4-8.749,8-8.749,4,4.624,8,4.624,4,.223,8,.223,4-5.209,8-5.209,4,5,8,5,4-.467,8-.467,4-3.02,8-3.02,4,5.153,8,5.153,4-.092,8-.092,4-6.727,8-6.727,4,3.859,8,3.859,4,1.021,8,1.021,4-1.961,8-1.961,4-.2,8-.2,4,.711,8,.711,4,5.616,8,5.616,4-4.087,8-4.087,4-1.306,8-1.306,4,6.068,8,6.068,4-9.438,8-9.438,4,2.187,8,2.187,4-2.3,8-2.3,4,4.059,8,4.059,4-2.437,8-2.437,4,6.633,8,6.633,4,.073,8,.073,4,.784,8,.784,4,.451,8,.451,4-8.292,8-8.292,4,2.927,8,2.927,4,1.39,8,1.39,4,3.886,8,3.886,4-2.047,8-2.047,4-7.169,8-7.169,4,9.1,8,9.1,4-5.061,8-5.061,4,4.464,8,4.464,4-5.056,8-5.056,4-2.57,8-2.57,4,3.826,8,3.826,4-4.311,8-4.311,4,1.907,8,1.907,4,6.905,8,6.905,4,.018,8,.018,4-4.179,8-4.179,4-1.259,8-1.259,4-2.585,8-2.585,4,.009,8,.009,4,1.99,8,1.99,4,.033,8,.033,4-2.428,8-2.428,4,2.957,8,2.957,4-2.44,8-2.44,4,5.616,8,5.616,4,2.252,8,2.252,4-9.523,8-9.523,4,6.74,8,6.74,4,1.026,8,1.026,4-.414,8-.414,4-3.173,8-3.173,4,1.776,8,1.776,4-1.031,8-1.031,4-1.33,8-1.33,4,5.72,8,5.72,4-6.028,8-6.028,4-1.942,8-1.942,4-.789,8-.789,4,.041,8,.041,4-.211,8-.211,4,5.069,8,5.069,4-5.616,8-5.616,4,.7,8,.7,4,3.27,8,3.27,4-3.052,8-3.052,4,8.145,8,8.145,4-9.124,8-9.124,4,6.049,8,6.049,4-1.151,8-1.151,4-1.758,8-1.758,4,1.9,8,1.9,4-3.824,8-3.824,4,4.434,8,4.434,4-3.821,8-3.821,4,7.011,8,7.011,4-2.96,8-2.96,4-5.323,8-5.323,4,5.39,8,5.39,4-.685,8-.685,4-2.4,8-2.4,4,1.457,8,1.457,4-1.148,8-1.148,4,.052,8,.052,4,5.192,8,5.192,4-7.859,8-7.859,4,7.421,8,7.421,4-6.451,8-6.451,4,2.208,8,2.208,4,1.448,8,1.448,4,.1,8,.1,4-4.93,8-4.93,4,7.782,8,7.782,4-3.171,8-3.171,4-2.463,8-2.463,4-2.217,8-2.217,4,5.863,8,5.863,4,3.6,8,3.6,4-.068,8-.068,4-4.87,8-4.87,4,.84,8,.84,4-3.887,8-3.887,4,.7,8,.7,4,4.839,8,4.839,4,2,8,2,4-8.84,8-8.84,4,7.056,8,7.056,4,.819,8,.819,4-1.94,8-1.94,4-.071,8-.071,4-1.2,8-1.2,4-.8,8-.8,4,3.041,8,3.041,4-5.3,8-5.3,4,6.562,8,6.562,4-5.22,8-5.22,4,4.7,8,4.7,4-3.445,8-3.445,4,.779,8,.779,4,4.061,8,4.061,4-3.189,8-3.189,4,.393,8,.393,4,2.567,8,2.567,4-8.756,8-8.756,4,6.5,8,6.5,4-6.6,8-6.6,4,7.839,8,7.839,4-6.678,8-6.678,4,7.931,8,7.931,4-6.677,8-6.677,4,5.871,8,5.871,4,.562,8,.562,4-6.435,8-6.435,4,2.769,8,2.769,4,3.554,8,3.554,4-1.346,8-1.346,4-5.767,8-5.767,4,5.733,8,5.733,4-3.384,8-3.384,4-1.272,8-1.272,4-.7,8-.7,4,2.672,8,2.672,4-.958,8-.958,4,1.519,8,1.519,4-1.839,8-1.839,4,.326,8,.326,4,1.943,8,1.943,4,1.923,8,1.923,4-5.7,8-5.7,4,2.574,8,2.574,4,3.128,8,3.128,4,.2,8,.2,4-6.818,8-6.818,4-1.464,8-1.464,4,8.641,8,8.641,4-3.963,8-3.963,4,5.247,8,5.247,4-5.8,8-5.8,4-2.514,8-2.514,4,1.82,8,1.82,4,5.187,8,5.187,4-6.183,8-6.183,4,.813,8,.813,4,1.206,8,1.206,4-1.158,8-1.158,4-2.7,8-2.7,4,6.808,8,6.808,4-.594,8-.594,4-1.1,8-1.1,4-.081,8-.081,4,2.528,8,2.528,4,1.335,8,1.335,4-9.307,8-9.307,4,.452,8,.452,4,3.952,8,3.952,4,3.889,8,3.889,4-.706,8-.706,4-5.827,8-5.827,4,5.473,8,5.473,4-1.362,8-1.362,4-.775,8-.775,4-3.193,8-3.193,4,.1,8,.1,4,1.144,8,1.144,4-2.03,8-2.03,4,5.769,8,5.769,4,1.618,8,1.618,4-6.832,8-6.832,4,4.582,8,4.582,4-5.091,8-5.091,4-.075,8-.075,4,4.03,8,4.03,4,4.594,8,4.594,4-.962,8-.962,4,.865,8,.865,4-2.657,8-2.657,4,2.542,8,2.542,4-5.548,8-5.548,4,1.725,8.005,1.725,4-.591,8-.591,4,3.286,8,3.286,4-8.265,8-8.265,4,3.706,8,3.706,4,5.482,8,5.482,4-6.578,8-6.578,4-2.93,8-2.93,4,2.6,8,2.6,4,.189,8,.189,4,4.028,8,4.028,4-1.681,8.005-1.681,4-1.117,8-1.117,4-1.667,8.006-1.667,4,5.977,8.007,5.977,4-7.883,8-7.883,4,8.588,8.006,8.588,4-7.656,8.007-7.656,4-.923,8.008-.923,4,8.235,8.006,8.235,4-3.961,8.006-3.961,4,2.608,8.006,2.608,4-3.691,8.005-3.691,4-2.55,8.008-2.55,4-.146,8.011-.146,4,6.952,8.008,6.952,4.006-5.634,8.013-5.634,7.682-2.607,10.514.228S1925.131,9,1925.131,13.01s4.49,4.012,4.49,8.023-1.782,4.012-1.782,8.024-5.2,4.011-5.2,8.022-.812,4.011-.812,8.021,2.772,4.01,2.772,8.019,4.1,4.01,4.1,8.019-5.449,4.01-5.449,8.02-.317,4.01-.317,8.02,5.732,4.011,5.732,8.022.084,4.012.084,8.024-2.575,4.012-2.575,8.024-5.3,4.011-5.3,8.021-.547,4.01-.547,8.021,8.8,4.01,8.8,8.02-1.094,4.01-1.094,8.02-5.15,4.012-5.15,8.023-.667,4.012-.667,8.024,7.7,4.012,7.7,8.024-7.616,4.011-7.616,8.022,3.281,4.011,3.281,8.021-5.484,4.011-5.484,8.021,4.346,4.011,4.346,8.023,1.674,4.012,1.674,8.024,2.306,4.013,2.306,8.025-.577,4.011-.577,8.022-3.489,4.011-3.489,8.022.006,4.011.006,8.022-3.22,4.012-3.22,8.025,6.159,4.012,6.159,8.025-3.962,4.011-3.962,8.023-.734,4.011-.734,8.022,3.045,4.012,3.045,8.024,1.513,4.013,1.513,8.026-4.933,4.012-4.933,8.024,3.212,4.011,3.212,8.023,2.168,4.012,2.168,8.023,2.324,4.014,2.324,8.027-6.538,4.012-6.538,8.024-1.578,4.012-1.578,8.024,6.223,4.012,6.223,8.025S1921,337.93,1921,341.943s6.144,4.012,6.144,8.024-3.266,4.012-3.266,8.025-3.627,4.013-3.627,8.026,8.659,4.012,8.659,8.024-.9,4.013-.9,8.026-7.079,4.013-7.079,8.025,1.5,4.013,1.5,8.025-1.547,4.013-1.547,8.027,2.819,4.012,2.819,8.025,1.338,4.013,1.338,8.027-3.881,4.012-3.881,8.025,1.495,4.014,1.495,8.027,1.9,4.013,1.9,8.026,5.314,4.012,5.314,8.025-3.625,4.01-3.625,8.021.455,4.011.455,8.022-.426,4.013-.426,8.026,3.034,4.011,3.034,8.022-7.222,4.014-7.222,8.027,5.805,4.012,5.805,8.024-4.1,4.012-4.1,8.025,3.632,4.013,3.632,8.025-1.451,4.014-1.451,8.027-5.31,4.013-5.31,8.026,8.389,4.014,8.389,8.027-2.7,4.015-2.7,8.029,2.207,4.014,2.207,8.028-1.818,4.014-1.818,8.028-6.209,4.014-6.209,8.028,3.109,4.015,3.109,8.03,3.248,4.015,3.248,8.029.614,4.014.614,8.027-.177,4.014-.177,8.028-1.69,4.014-1.69,8.028-.409,4.014-.409,8.029-5.2,4.017-5.2,8.033,5.534,4.015,5.534,8.03,2.33,3.588,2.866,7.57C1928.919,650.122,1926.591,650.931,1923.757,653.779Z"/></g></g></g></svg>