<svg xmlns="http://www.w3.org/2000/svg" width="378.277" height="728.571" viewBox="0 0 378.277 728.571"><defs><style>.cls-1{opacity:0.5;}.cls-2{fill:#aac6d6;}</style></defs><g id="レイヤー_2" data-name="レイヤー 2"><g id="レイヤー_1-2" data-name="レイヤー 1"><g id="レイヤー_2-2" data-name="レイヤー 2"><g class="cls-1"><path class="cls-2" d="M376.484,726.218c-2.552,2.546-3.315-.413-6.92-.413s-3.605,1.1-7.209,1.1-3.6-.6-7.208-.6-3.605,1.4-7.209,1.4-3.606-.367-7.212-.367-3.605-.356-7.209-.356-3.605-1.309-7.209-1.309-3.605,2.249-7.209,2.249-3.606-.265-7.212-.265-3.605-1.763-7.21-1.763-3.6.395-7.209.395-3.605.5-7.211.5-3.605-1.36-7.21-1.36-3.605-.1-7.21-.1-3.6-.236-7.21-.236-3.606,1.03-7.211,1.03-3.605-1.061-7.21-1.061-3.606,2.719-7.212,2.719-3.6-2.388-7.21-2.388-3.606,1.433-7.211,1.433-3.606.791-7.212.791-3.6-.332-7.21-.332-3.606.191-7.212.191-3.6.215-7.207.215-3.6.1-7.206.1-3.6-.448-7.209-.448-3.605-2.05-7.211-2.05-3.6,1.193-7.207,1.193-3.6,1.4-7.209,1.4-3.606-.234-7.211-.234-3.605-.7-7.209-.7-3.606-1.248-7.212-1.248-3.6,1.526-7.21,1.526-3.606.466-7.211.466-3.606-2.478-7.211-2.478-3.607.577-7.213.577-3.606-.75-7.212-.75-3.606,2.769-7.213,2.769-3.607-2.1-7.214-2.1-3.607.488-7.214.488-3.606-.987-7.213-.987-3.607,2.627-7.214,2.627-3.608-1.711-7.216-1.711l-7.21,0c-3.607,0-3.607.81-7.214.81s-3.607.979-7.214.979-3.607-.854-7.214-.854-3.607.242-7.215.242-3.606-1.585-7.212-1.585-3.609-.168-7.218-.168S12.608,727.786,9,727.786,3.552,729.843.99,727.3c-2.546-2.529.622-4.377.622-7.966s1.131-3.589,1.131-7.177S.792,708.567.792,704.98,2.4,701.393,2.4,697.807s.371-3.587.371-7.173-1.221-3.586-1.221-7.172-.876-3.585-.876-7.171.775-3.586.775-7.172,1.318-3.586,1.318-7.172-1.04-3.587-1.04-7.174,1.132-3.587,1.132-7.175S.927,644.01.927,640.422s-.12-3.59-.12-7.179-.472-3.588-.472-7.177.353-3.587.353-7.175.571-3.587.571-7.174S.33,608.131.33,604.544s1.324-3.586,1.324-7.173.517-3.586.517-7.173-.092-3.587-.092-7.174.062-3.588.062-7.176-.509-3.588-.509-7.177-1.3-3.589-1.3-7.179.36-3.588.36-7.177S1.9,550.728,1.9,547.14s.507-3.587.507-7.175-1.3-3.587-1.3-7.174,1.636-3.587,1.636-7.174S.511,522.029.511,518.442s2.3-3.589,2.3-7.177-.178-3.59-.178-7.179-.315-3.589-.315-7.178S1.5,493.32,1.5,489.732s.808-3.588.808-7.176-1.144-3.587-1.144-7.175-.118-3.588-.118-7.176-.252-3.588-.252-7.177,2.423-3.589,2.423-7.179-1.8-3.589-1.8-7.178,1-3.588,1-7.177.643-3.588.643-7.176S.642,428.73.642,425.142s.967-3.588.967-7.177,1.332-3.59,1.332-7.179-1.9-3.59-1.9-7.179.993-3.589.993-7.177S3,392.842,3,389.253.334,385.665.334,382.076s2.659-3.589,2.659-7.179-.205-3.59-.205-7.179S2.2,364.129,2.2,360.54s-.845-3.589-.845-7.177,1.3-3.589,1.3-7.178-.928-3.591-.928-7.181S1,335.415,1,331.826s.466-3.589.466-7.178-.538-3.589-.538-7.178.063-3.591.063-7.181.09-3.59.09-7.179S3,299.521,3,295.932s-2.35-3.59-2.35-7.18,1.468-3.589,1.468-7.179-1.833-3.59-1.833-7.179,1.606-3.59,1.606-7.179.675-3.591.675-7.181.208-3.589.208-7.178.02-3.591.02-7.181-2-3.59-2-7.179,1.275-3.59,1.275-7.18,1.023-3.59,1.023-7.181-.074-3.589-.074-7.179-.447-3.591-.447-7.182.055-3.588.055-7.176-.709-3.587-.709-7.174S.376,191.835.376,188.246s2.541-3.59,2.541-7.18S.53,177.478.53,173.89s.415-3.589.415-7.178.93-3.59.93-7.181.376-3.589.376-7.177-.285-3.591-.285-7.181,1.178-3.59,1.178-7.179S.655,134.4.655,130.813s.838-3.59.838-7.18,1.395-3.591,1.395-7.182-.553-3.59-.553-7.18-.973-3.591-.973-7.182.58-3.592.58-7.184-.13-3.591-.13-7.182-.432-3.591-.432-7.182S2.6,76.949,2.6,73.357.873,69.765.873,66.173,3,62.583,3,58.993,1.855,55.4,1.855,51.811s-.623-3.592-.623-7.183,1.783-3.592,1.783-7.183S2.08,33.853,2.08,30.26s.551-3.59.551-7.18-1.8-3.594-1.8-7.187S.575,12.3.575,8.7-.861,3.959,1.685,1.42,5.379.983,8.984.983s3.605.821,7.209.821S19.8,1.69,23.4,1.69,27.006.6,30.61.6s3.606,1.654,7.212,1.654S41.427,2,45.031,2s3.605-.435,7.209-.435S55.845.315,59.449.315s3.606.656,7.212.656,3.605,1.741,7.21,1.741,3.6-.256,7.209-.256S84.685.772,88.291.772,91.9.154,95.5.154s3.6,1.413,7.21,1.413,3.605-.076,7.21-.076,3.606-1.1,7.211-1.1,3.6,1.323,7.21,1.323S127.948.13,131.554.13s3.6,1.336,7.21,1.336,3.606,1.23,7.211,1.23S149.581.968,153.186.968s3.606.161,7.211.161S164,1.9,167.609,1.9s3.6-1.019,7.207-1.019,3.6,2.01,7.206,2.01,3.6-.12,7.209-.12,3.605-.554,7.21-.554,3.6-1.135,7.208-1.135,3.6.437,7.209.437,3.606.944,7.211.944,3.605.256,7.209.256,3.606.145,7.212.145S236.1.409,239.7.409,243.306,2.7,246.911,2.7s3.606-.181,7.211-.181S257.729.956,261.335.956s3.606-.391,7.212-.391,3.606.827,7.213.827,3.607-.353,7.214-.353,3.607.735,7.214.735S293.794.729,297.4.729s3.607.763,7.214.763,3.608.852,7.216.852,3.6-.586,7.21-.586,3.607.692,7.214.692,3.607-1.406,7.214-1.406,3.607.751,7.214.751,3.607.257,7.215.257,3.606-.221,7.212-.221,3.609-.225,7.218-.225,3.611.747,7.223.747,5.327-4.06,7.889-1.514c2.545,2.53-1.528,4.259-1.528,7.848s.146,3.588.146,7.176,1.158,3.587,1.158,7.175-1.868,3.586-1.868,7.173,2.144,3.586,2.144,7.172-.981,3.586-.981,7.172-.2,3.586-.2,7.172-.469,3.585-.469,7.171,1.166,3.587,1.166,7.173.345,3.587.345,7.173-1.073,3.588-1.073,7.175,1.637,3.588,1.637,7.177-.627,3.589-.627,7.178-1.593,3.589-1.593,7.177,2.448,3.588,2.448,7.175-1.76,3.587-1.76,7.174-.471,3.587-.471,7.173.411,3.587.411,7.173,1.593,3.587,1.593,7.173-1.659,3.587-1.659,7.175,1.078,3.587,1.078,7.175-.238,3.588-.238,7.177-.492,3.59-.492,7.179.162,3.589.162,7.177.235,3.588.235,7.175.594,3.588.594,7.175-2.034,3.587-2.034,7.174,1.227,3.587,1.227,7.174.727,3.588.727,7.176-1.316,3.588-1.316,7.177-.195,3.589-.195,7.179.638,3.589.638,7.178-1.172,3.588-1.172,7.176.879,3.587.879,7.175-.291,3.588-.291,7.175.681,3.588.681,7.176-.694,3.588-.694,7.177.143,3.589.143,7.179,1.981,3.589,1.981,7.178-.137,3.589-.137,7.177-1.093,3.588-1.093,7.176.376,3.588.376,7.176-1.092,3.589-1.092,7.177-.476,3.59-.476,7.18.01,3.589.01,7.178,2.112,3.589,2.112,7.178-.658,3.588-.658,7.176-1.848,3.589-1.848,7.177.067,3.59.067,7.179,1.215,3.59,1.215,7.18-.842,3.589-.842,7.177,1.512,3.589,1.512,7.178-1.548,3.589-1.548,7.178,1.72,3.59,1.72,7.18-1.832,3.589-1.832,7.179,1.712,3.589,1.712,7.177-.638,3.59-.638,7.179-1.073,3.59-1.073,7.18.14,3.59.14,7.179,1.362,3.589,1.362,7.178-1.635,3.59-1.635,7.18-.122,3.59-.122,7.18,1.555,3.589,1.555,7.178-.1,3.59-.1,7.18.254,3.59.254,7.18-1.656,3.589-1.656,7.179,1.7,3.59,1.7,7.18.262,3.59.262,7.18-1.2,3.59-1.2,7.179,1.436,3.591,1.436,7.181-2.263,3.59-2.263,7.18.987,3.59.987,7.181-.932,3.588-.932,7.176.986,3.587.986,7.175.409,3.588.409,7.177-1.109,3.59-1.109,7.18.848,3.588.848,7.176-1.194,3.589-1.194,7.178.915,3.591.915,7.181.438,3.589.438,7.178-.06,3.59-.06,7.181-.05,3.589-.05,7.179-.32,3.59-.32,7.18.933,3.59.933,7.18.808,3.591.808,7.182-.883,3.59-.883,7.18.586,3.592.586,7.183-1.342,3.591-1.342,7.183,1.282,3.591,1.282,7.182.3,3.592.3,7.183-2.692,3.591-2.692,7.183.086,3.592.086,7.185-.071,3.589-.071,7.179,1.847,3.591,1.847,7.183-.63,3.591-.63,7.182-.725,3.592-.725,7.183,1.717,3.593,1.717,7.185-1.027,3.59-1.027,7.181,1.565,3.593,1.565,7.187-2.094,3.684-1.405,7.213C377.37,722.955,379.03,723.679,376.484,726.218Z"/></g></g></g></g></svg>